<svg xmlns="http://www.w3.org/2000/svg" width="55.263" height="55.263" viewBox="0 0 55.263 55.263">
  <g id="user" transform="translate(0 0.001)">
    <path id="Path_13" data-name="Path 13" d="M25.232,238.572a1.858,1.858,0,0,1,.76-1.216l2.05-1.48c-.02-.1-.037-.189-.052-.273-.01-.056-.019-.114-.027-.171l-2.479-.459a1.8,1.8,0,0,1-1.412-2.183l1-5.591a1.848,1.848,0,0,1,.763-1.205,1.807,1.807,0,0,1,1.375-.286l2.457.455c.048-.077.1-.15.144-.216l.092-.143,0-.006-1.46-2.147a1.712,1.712,0,0,1-.323-.967,1.866,1.866,0,0,1,.785-1.576l2.983-2.1a17.435,17.435,0,0,0-3.682-2c-.186.149-.381.282-.574.421-.057.041-.112.084-.17.124q-.5.345-1.018.645c-.028.016-.056.036-.084.052q-.555.311-1.136.571c-.125.056-.254.1-.381.153-.256.1-.511.207-.773.3-.175.06-.352.111-.531.163-.228.067-.458.13-.69.185-.181.043-.362.083-.545.118-.259.05-.518.089-.779.124-.157.02-.312.045-.47.06-.425.041-.853.068-1.283.068s-.856-.027-1.28-.068c-.159-.015-.316-.04-.475-.061-.258-.035-.514-.073-.769-.122-.187-.036-.373-.077-.557-.121-.224-.053-.446-.114-.667-.179-.185-.054-.371-.107-.552-.169-.245-.084-.486-.18-.726-.277-.142-.058-.287-.109-.427-.171-.377-.168-.747-.355-1.108-.557-.071-.04-.138-.085-.207-.126-.3-.177-.6-.364-.891-.565-.083-.057-.162-.118-.243-.177-.168-.121-.34-.237-.5-.366A18.336,18.336,0,0,0,0,234.147v8.4H8.394a.839.839,0,0,1-.2-.535v-4.559a.856.856,0,0,1,1.711,0v4.559a.837.837,0,0,1-.2.535H27.335l-1.8-2.654a1.762,1.762,0,0,1-.3-1.326Zm0,0" transform="translate(0 -192.83)" fill="#ff923e"/>
    <path id="Path_14" data-name="Path 14" d="M324.644,315.009a4.693,4.693,0,0,0-.855-.079,4.792,4.792,0,0,0-2.763.891,4.929,4.929,0,0,0-2.034,3.172,4.982,4.982,0,0,0,.8,3.7,4.8,4.8,0,0,0,3.106,2.062,4.756,4.756,0,0,0,3.617-.812,4.922,4.922,0,0,0,2.034-3.172,5.091,5.091,0,0,0-.8-3.708A4.812,4.812,0,0,0,324.644,315.009Zm0,0" transform="translate(-283.381 -279.842)" fill="#ff923e"/>
    <path id="Path_15" data-name="Path 15" d="M73.882,23.265l.043.027c.286.2.583.389.886.564.121.07.245.131.368.2.2.107.4.212.605.306.161.074.326.141.489.208s.353.141.532.2.359.121.541.175.361.1.544.147.358.087.538.123c.214.042.431.074.648.1.153.021.3.047.457.062.375.037.755.06,1.139.06s.766-.024,1.142-.06c.151-.015.3-.041.45-.061.221-.03.442-.063.659-.106.177-.035.352-.077.527-.121s.376-.1.561-.151.351-.11.524-.17c.188-.066.373-.138.557-.214.156-.064.313-.128.466-.2.217-.1.428-.209.638-.322.112-.06.226-.116.337-.18.306-.178.6-.366.894-.57l.037-.024A12.89,12.89,0,0,0,92.82,12.721C92.82,5.706,87.372,0,80.673,0S68.527,5.706,68.527,12.721a12.893,12.893,0,0,0,5.355,10.544Zm0,0" transform="translate(-60.892)" fill="#ff923e"/>
    <path id="Path_16" data-name="Path 16" d="M258.348,238.588l-3.079-.571a.613.613,0,0,1-.484-.458,4.968,4.968,0,0,1-.09-.567c-.01-.075-.018-.148-.043-.265-.013-.037-.032-.134-.065-.291a1.969,1.969,0,0,0-.084-.317.61.61,0,0,1,.218-.722l2.6-1.824a.38.38,0,0,0,.158-.255l.014-.094-3.39-5.077-.12.09-.039-.011-2.775,1.87a.615.615,0,0,1-.768-.054,2.591,2.591,0,0,0-.358-.259l-.2-.135a3.079,3.079,0,0,0-.565-.326.612.612,0,0,1-.348-.665l.563-3.129a.386.386,0,0,0-.055-.3.361.361,0,0,0-.242-.15l-5.515-1.022-.055-.01-.054.014a.388.388,0,0,0-.318.3l-.563,3.13a.611.611,0,0,1-.454.485,4.461,4.461,0,0,1-.532.09l-.061.008c-.063.009-.123.016-.228.04-.036.012-.131.032-.27.063a1.854,1.854,0,0,0-.32.088.61.61,0,0,1-.736-.223l-1.794-2.64-.068-.111h-.129a.587.587,0,0,0-.141-.026l-.763.481h-.168v.118l-3.834,2.7a.382.382,0,0,0-.158.254l-.014.094,1.874,2.808a.61.61,0,0,1-.051.753,2.613,2.613,0,0,0-.258.369l-.129.2a3.169,3.169,0,0,0-.326.583.612.612,0,0,1-.669.35l-3.079-.571-.055-.01-.054.014a.388.388,0,0,0-.317.305L228.93,239.4l.01.32,3.316.64a.613.613,0,0,1,.484.458,5.032,5.032,0,0,1,.09.569c.01.075.018.148.032.229a3.83,3.83,0,0,0,.16.643.609.609,0,0,1-.212.717L230.27,244.8a.393.393,0,0,0-.166.261l-.015.094,3.407,5.061.115-.071a.336.336,0,0,0,.091.013l2.742-1.87a.626.626,0,0,1,.769.054,2.56,2.56,0,0,0,.357.259l.2.136a3.044,3.044,0,0,0,.563.325.612.612,0,0,1,.348.665l-.562,3.128a.365.365,0,0,0,.3.451l5.594,1.038.054-.016a.394.394,0,0,0,.316-.3l.562-3.13a.61.61,0,0,1,.456-.485,4.989,4.989,0,0,1,.529-.09c.084-.01.168-.02.246-.035a3.693,3.693,0,0,0,.639-.163.617.617,0,0,1,.732.224l1.794,2.638.093.107.118.008a.446.446,0,0,0,.126.023l4.767-3.294a.381.381,0,0,0,.158-.255l.014-.094-1.874-2.806a.608.608,0,0,1,.051-.753,2.524,2.524,0,0,0,.259-.368l.131-.2a3.228,3.228,0,0,0,.323-.58.607.607,0,0,1,.669-.352l3.135.581.054-.015a.388.388,0,0,0,.317-.3l1-5.616A.472.472,0,0,0,258.348,238.588Zm-8.311,1.688a6.38,6.38,0,0,1-2.635,4.113,6.2,6.2,0,0,1-8.781-1.627,6.415,6.415,0,0,1,1.6-8.9,6.252,6.252,0,0,1,3.6-1.158,6.145,6.145,0,0,1,1.125.1,6.274,6.274,0,0,1,4.057,2.685,6.554,6.554,0,0,1,1.028,4.782Zm0,0" transform="translate(-203.423 -199.085)" fill="#ff923e"/>
  </g>
</svg>