<svg xmlns="http://www.w3.org/2000/svg" width="47.877" height="44.47" viewBox="0 0 47.877 44.47">
  <g id="Layer_2" data-name="Layer 2" transform="translate(-2.004 -3)">
    <path id="Path_76" data-name="Path 76" d="M47.559,20.634a1.71,1.71,0,0,0-2.412-.051l-.788.753A20.4,20.4,0,0,0,24.093,3,20.167,20.167,0,0,0,4.7,17.268a1.71,1.71,0,1,0,3.269,1.006A16.762,16.762,0,0,1,24.093,6.421,16.958,16.958,0,0,1,40.815,20.737l-.1-.1a1.71,1.71,0,0,0-2.463,2.36l3.267,3.421a1.659,1.659,0,0,0,1.231.53.474.474,0,0,0,.154-.017,1.539,1.539,0,0,0,1.026-.462l3.575-3.421a1.71,1.71,0,0,0,.051-2.412Z" transform="translate(1.849 0)" fill="#625ba2"/>
    <path id="Path_77" data-name="Path 77" d="M44.207,22.536a1.71,1.71,0,0,0-2.136,1.132A16.762,16.762,0,0,1,25.942,35.521,16.958,16.958,0,0,1,9.22,21.206l.1.1a1.706,1.706,0,0,0,2.463-2.36L8.514,15.527a1.652,1.652,0,0,0-1.385-.513,1.539,1.539,0,0,0-1.026.462L2.527,18.9a1.706,1.706,0,1,0,2.36,2.463l.788-.753A20.4,20.4,0,0,0,25.942,38.942a20.167,20.167,0,0,0,19.4-14.268,1.71,1.71,0,0,0-1.132-2.138Z" transform="translate(0 8.528)" fill="#625ba2"/>
    <g id="Group_37" data-name="Group 37" transform="translate(17.015 13.027)">
      <circle id="Ellipse_15" data-name="Ellipse 15" cx="7.103" cy="7.103" r="7.103" transform="translate(1.702 0)" fill="#ff923e"/>
      <path id="Path_78" data-name="Path 78" d="M27.353,16.99a10.219,10.219,0,0,1-15.291,0,4.866,4.866,0,0,0-.855,5.285A5.908,5.908,0,0,0,16.8,25.559h6.722a5.146,5.146,0,0,0,3.831-8.569Z" transform="translate(-10.78 -3.089)" fill="#ff923e"/>
    </g>
  </g>
</svg>