<svg xmlns="http://www.w3.org/2000/svg" width="39.798" height="34.113" viewBox="0 0 39.798 34.113">
  <g id="Layer_2" data-name="Layer 2" transform="translate(-2 -4)">
    <path id="Path_74" data-name="Path 74" d="M40.377,15.843h-9.95V14.421a1.421,1.421,0,0,0-2.843,0v1.421H16.214V14.421a1.421,1.421,0,0,0-2.843,0v1.421H3.421a1.421,1.421,0,0,0,0,2.843h9.95v1.421a1.421,1.421,0,1,0,2.843,0V18.685H27.585v1.421a1.421,1.421,0,1,0,2.843,0V18.685h9.95a1.421,1.421,0,1,0,0-2.843Z" transform="translate(0 3.792)" fill="#ff923e"/>
    <path id="Path_75" data-name="Path 75" d="M37.534,9.685H31.849V8.264A4.264,4.264,0,0,0,27.585,4H16.214A4.264,4.264,0,0,0,11.95,8.264V9.685H6.264A4.264,4.264,0,0,0,2,13.95v19.9a4.264,4.264,0,0,0,4.264,4.264h31.27A4.264,4.264,0,0,0,41.8,33.849V13.95A4.264,4.264,0,0,0,37.534,9.685ZM14.792,8.264a1.421,1.421,0,0,1,1.421-1.421H27.585a1.421,1.421,0,0,1,1.421,1.421V9.685H14.792ZM38.956,33.849a1.421,1.421,0,0,1-1.421,1.421H6.264a1.421,1.421,0,0,1-1.421-1.421V13.95a1.421,1.421,0,0,1,1.421-1.421h31.27a1.421,1.421,0,0,1,1.421,1.421Z" transform="translate(0 0)" fill="#625ba2"/>
  </g>
</svg>