<svg xmlns="http://www.w3.org/2000/svg" width="39.559" height="32.577" viewBox="0 0 39.559 32.577">
  <g id="diamond" transform="translate(0.001 -45.178)">
    <g id="Group_46" data-name="Group 46" transform="translate(-0.001 45.178)">
      <g id="Group_45" data-name="Group 45" transform="translate(0 0)">
        <path id="Path_93" data-name="Path 93" d="M39.363,56.173,32.9,45.788a1.293,1.293,0,0,0-1.1-.61H7.756a1.293,1.293,0,0,0-1.1.61L.195,56.173a1.293,1.293,0,0,0,.157,1.57L18.838,77.349a1.292,1.292,0,0,0,1.881,0L39.206,57.743A1.293,1.293,0,0,0,39.363,56.173ZM19.779,74.578,2.916,56.694l5.558-8.93H31.083l5.558,8.93Z" transform="translate(0.001 -45.178)" fill="#fff"/>
      </g>
    </g>
    <g id="Group_48" data-name="Group 48" transform="translate(1.292 55.563)">
      <g id="Group_47" data-name="Group 47">
        <rect id="Rectangle_40" data-name="Rectangle 40" width="36.973" height="2.586" fill="#fff"/>
      </g>
    </g>
    <g id="Group_50" data-name="Group 50" transform="translate(10.643 46.218)">
      <g id="Group_49" data-name="Group 49" transform="translate(0 0)">
        <path id="Path_94" data-name="Path 94" d="M140.4,69.156l1.993-10.009-2.536-.505-2.068,10.385a1.294,1.294,0,0,0,.068.733L145.7,89.366l2.4-.96Z" transform="translate(-137.76 -58.642)" fill="#fff"/>
      </g>
    </g>
    <g id="Group_52" data-name="Group 52" transform="translate(18.58 46.416)">
      <g id="Group_51" data-name="Group 51" transform="translate(0 0)">
        <path id="Path_95" data-name="Path 95" d="M250.879,71.285,248.724,61.2l-2.528.54,2.072,9.7-7.781,19.327,2.4.965,7.929-19.693A1.3,1.3,0,0,0,250.879,71.285Z" transform="translate(-240.487 -61.202)" fill="#fff"/>
      </g>
    </g>
  </g>
</svg>