<svg xmlns="http://www.w3.org/2000/svg" viewBox="0 0 228.5 84.18"><defs><style>.a{fill:#fff;}</style></defs><path class="a" d="M87.57,43.94v1.33c0,7.9,0,15.79,0,23.69,0,1.24-.36,1.49-1.53,1.48-5-.07-10-.09-14.95,0-1.34,0-1.55-.42-1.55-1.62.06-7.18,0-14.37,0-21.69-7.41,17.13-20,25.77-38.81,23.64C20.46,69.61,12.48,64,6.5,55.45c.35-.18.43,0,.52.11,4.31,4.85,9.9,7,16.21,7.42A31.54,31.54,0,0,0,34.58,61.9c8.7-2.59,14.17-8.61,17.61-16.73a36.69,36.69,0,0,0,2.46-8.59c.11-.7.37-.91,1-.89,1.13,0,2.27,0,3.46,0a1.67,1.67,0,0,0-.71-1q-6.15-6-12.31-12c-.4-.4-.69-.89-1.37-.21C40.53,26.69,36.27,30.88,32,35.1a6.08,6.08,0,0,0-.45.6c1.31,0,2.37,0,3.43,0,.7,0,.93.21.86,1a22.72,22.72,0,0,1-2.21,8.12c-2.93,5.83-7.85,8.57-14.21,9a23.46,23.46,0,0,1-6.93-.58C7,51.87,1.27,47.12.61,38.64A35.87,35.87,0,0,1,26.36,1.46,35.12,35.12,0,0,1,68.87,23.3a3.4,3.4,0,0,0,.67,1.23c0-.42.06-.85.06-1.27,0-6.94,0-13.88,0-20.82,0-1,.24-1.26,1.24-1.26,8.68,0,17.37,0,26.05,0a33,33,0,0,1,9.82,1.43c8.39,2.65,13.37,9.07,13.8,17.86a24.66,24.66,0,0,1-.86,8.63c-2.17,7-6.8,11.43-14.26,13,6,7.9,11.95,15.71,17.9,23.51l.28,0V64.24q0-30.85,0-61.7c0-1.23.26-1.6,1.55-1.59Q143.34,1,161.6,1c1.08,0,1.42.25,1.4,1.37-.07,4.2-.05,8.39,0,12.59,0,.93-.26,1.2-1.19,1.19-6.32,0-12.63,0-19,0-1,0-1.37.21-1.34,1.29q.11,4.49,0,9c0,1.08.25,1.43,1.37,1.42,5.82-.06,11.64,0,17.45-.06,1.12,0,1.39.31,1.37,1.4-.06,4.28,0,8.56,0,12.84,0,.86-.23,1.12-1.11,1.12-5.94,0-11.88,0-17.82,0-1,0-1.27.29-1.25,1.26.06,3.24.05,6.48,0,9.72,0,.88.28,1.13,1.14,1.12,6.32,0,12.63-.05,18.95,0,1.06,0,1.21-.62,1.47-1.3Q173,28.1,182.81,2.35a1.81,1.81,0,0,1,2-1.4c5.61.07,11.22.06,16.83,0a1.44,1.44,0,0,1,1.6,1.13q12.51,33.58,25.09,67.14c.41,1.09.1,1.2-.88,1.2q-8.3-.06-16.58,0a1.43,1.43,0,0,1-1.62-1.11c-1.2-3.36-2.5-6.68-3.7-10a1.25,1.25,0,0,0-1.42-1c-7.52,0-15,0-22.56,0a1.31,1.31,0,0,0-1.44,1c-1.3,3.42-2.67,6.8-4,10.22a1.22,1.22,0,0,1-1.34.94q-34.59,0-69.19,0a1.74,1.74,0,0,1-1.62-1.06Q96.34,57.16,88.6,45c-.24-.38-.49-.75-.74-1.12Zm0-20.57v7.72c0,.51-.06,1,.72,1a25.79,25.79,0,0,0,7.87-.91c3.72-1.22,5.55-3.78,5.56-7.76s-1.88-6.56-5.56-7.75a25.58,25.58,0,0,0-7.88-.86c-.8,0-.71.49-.71,1ZM193,22.31c-.19.22-.27.27-.3.34-2.32,7.05-4.62,14.1-7,21.14-.3.88.23.76.73.76,4.28,0,8.55,0,12.83,0,.89,0,1-.26.71-1-.76-2.19-1.47-4.4-2.19-6.61C196.22,32.12,194.63,27.28,193,22.31Z" transform="translate(-0.5 -0.14)"/><path class="a" d="M225.6,78.46q-1.12,1.89-2.26,3.78a1.34,1.34,0,0,1-2.5,0,26.93,26.93,0,0,0-2.57-3.64c0,1.38-.09,2.77,0,4.14s-.37,1.66-1.52,1.44c-.61-.12-1.58.48-1.56-.89,0-3.37,0-6.73,0-10.09,0-.66.25-.82.87-.88A2.54,2.54,0,0,1,219,73.87c.89,1.77,2,3.41,3.16,5.27l3.51-5.89a3.06,3.06,0,0,1,3.07-.8c.27.16.24.4.24.64,0,3.45,0,6.9.05,10.34,0,.59-.19.77-.78.81-2.34.13-2.34.16-2.34-2.14V78.54Z" transform="translate(-0.5 -0.14)"/><path class="a" d="M179.39,84.16c-.44,0-.64,0-.84.06-2,.33-3.46-.22-4.25-2.18-.08-.18-.25-.33-.35-.51-.41-.7-1.1-.51-1.68-.43s-.39.72-.39,1.12c0,2,0,2-2,2-1,0-1.45-.17-1.42-1.34.09-3.15.06-6.3,0-9.45,0-.81.23-1.11,1-1.08,1.91.07,3.83-.06,5.72.12,2.71.25,4.18,2.19,3.92,4.89a3.52,3.52,0,0,1-1.57,2.7c-.57.37-.55.66-.17,1.16C178,82.13,178.64,83.06,179.39,84.16Zm-7.53-7.42c0,1.74,0,1.74,1.28,1.74,1.83,0,2.61-.52,2.61-1.72s-.8-1.65-2.58-1.8C171.56,74.83,171.86,75.83,171.86,76.74Z" transform="translate(-0.5 -0.14)"/><path class="a" d="M109,84.22c-1.13,0-2,0-2.94,0s-.88-.66-1-1.16c-.26-.89-.73-1.14-1.7-1.14h-1.74c-1.29,0-2.44.07-2.71,1.67a.7.7,0,0,1-.79.62c-.9,0-1.81,0-2.68,0a1.52,1.52,0,0,1,.26-1.16c1.41-3.22,2.86-6.42,4.25-9.65.31-.74.69-1.16,1.56-1a9.61,9.61,0,0,0,1.61,0,.88.88,0,0,1,1,.61Zm-8.33-4.79h2.17c.44,0,.64-.19.46-.6A15,15,0,0,0,102,76,20.06,20.06,0,0,0,100.64,79.43Z" transform="translate(-0.5 -0.14)"/><path class="a" d="M69.85,72.4H73c.53,0,.66.44.87.78.75,1.23,1.49,2.46,2.3,3.81.72-1.19,1.42-2.18,1.93-3.26a2,2,0,0,1,2.44-1.35c.48.08,1-.11,1.57.21-1,1.65-1.87,3.33-2.94,4.89a7.37,7.37,0,0,0-1.47,5.35c.15,1-.15,1.48-1.32,1.42-2-.1-2.12,0-2-2A6.61,6.61,0,0,0,73.23,78C72.06,76.27,71.05,74.42,69.85,72.4Z" transform="translate(-0.5 -0.14)"/><path class="a" d="M127.81,72.39c1.45,0,2.9,0,4.35,0,1.17,0,.82.79.83,1.37s.28,1.36-.8,1.25a.28.28,0,0,0-.13,0c-2.63.09-2.63.09-2.63,2.68,0,1.87,0,3.74,0,5.6,0,.68-.17.94-.9,1-2.53.08-2.53.11-2.53-2.4,0-2,0-3.9,0-5.85,0-.73-.18-1.1-1-1-.37,0-.75,0-1.11,0-1.3.22-1.66-.33-1.57-1.56.06-.79.25-1.11,1.07-1.08C124.9,72.42,126.36,72.38,127.81,72.39Z" transform="translate(-0.5 -0.14)"/><path class="a" d="M151.92,78.47c0,1.65,0,3.31,0,5,0,.58-.17.77-.77.81-2.65.16-2.65.18-2.65-2.41,0-2.78,0-5.55,0-8.32,0-.86.25-1.14,1.12-1.15,2.32,0,2.32,0,2.32,2.26Z" transform="translate(-0.5 -0.14)"/><path class="a" d="M198.58,78.36c0,1.58-.05,3.16,0,4.73,0,.84-.16,1.16-1.08,1.15-2.3,0-2.3,0-2.3-2.3,0-2.78,0-5.56,0-8.35,0-.88.19-1.26,1.16-1.23,2.72.09,2.16-.25,2.21,2.14C198.6,75.79,198.58,77.07,198.58,78.36Z" transform="translate(-0.5 -0.14)"/></svg>