<svg xmlns="http://www.w3.org/2000/svg" width="63.856" height="54.734" viewBox="0 0 63.856 54.734">
  <g id="Layer_2" data-name="Layer 2" transform="translate(-2 -4)">
    <path id="Path_89" data-name="Path 89" d="M21.14,13H20v4.561h1.14a1.14,1.14,0,0,0,1.14-1.14V14.14A1.14,1.14,0,0,0,21.14,13Z" transform="translate(23.05 11.525)" fill="#ff923e"/>
    <path id="Path_90" data-name="Path 90" d="M11,14.14v2.281a1.14,1.14,0,0,0,1.14,1.14h1.14V13H12.14A1.14,1.14,0,0,0,11,14.14Z" transform="translate(11.525 11.525)" fill="#ff923e"/>
    <path id="Path_91" data-name="Path 91" d="M58.734,10.842A6.862,6.862,0,0,0,51.892,4H10.842A6.862,6.862,0,0,0,4,10.842V40.489H58.734Zm-11.4,17.1a5.7,5.7,0,0,1-5.7,5.7H38.208a2.281,2.281,0,0,1-2.281-2.281v-11.4a4.561,4.561,0,1,0-9.122,0v11.4a2.281,2.281,0,0,1-2.281,2.281H21.1a5.7,5.7,0,0,1-5.7-5.7V25.665a5.7,5.7,0,0,1,5.7-5.7h1.14a9.122,9.122,0,1,1,18.245,0h1.14a5.7,5.7,0,0,1,5.7,5.7Z" transform="translate(2.561)" fill="#ff923e"/>
    <path id="Path_92" data-name="Path 92" d="M61.295,22H6.561A4.561,4.561,0,0,0,2,26.561a9.122,9.122,0,0,0,9.122,9.122H56.734a9.122,9.122,0,0,0,9.122-9.122A4.561,4.561,0,0,0,61.295,22Z" transform="translate(0 23.05)" fill="#ff923e"/>
  </g>
</svg>