<svg id="Layer_2" data-name="Layer 2" xmlns="http://www.w3.org/2000/svg" width="34.081" height="39.242" viewBox="0 0 34.081 39.242">
  <path id="Path_70" data-name="Path 70" d="M21.041,41.608A17.059,17.059,0,0,1,4,24.567V9.695a4.269,4.269,0,0,1,3.14-4.11l9.8-2.67a15.641,15.641,0,0,1,8.219,0l9.8,2.67a4.269,4.269,0,0,1,3.126,4.11V24.567A17.059,17.059,0,0,1,21.041,41.608Zm0-36.4a12.789,12.789,0,0,0-3.362.45l-9.8,2.67A1.42,1.42,0,0,0,6.84,9.695V24.567a14.2,14.2,0,1,0,28.4,0V9.695A1.42,1.42,0,0,0,34.2,8.326l-9.8-2.67a12.79,12.79,0,0,0-3.357-.45Z" transform="translate(-4 -2.366)" fill="#fff"/>
  <path id="Path_71" data-name="Path 71" d="M15.68,22.369a1.42,1.42,0,0,1-1.136-.568l-4.26-5.68a1.42,1.42,0,1,1,2.272-1.7l3.35,4.468L24.7,11.358a1.42,1.42,0,1,1,1.846,2.156l-9.94,8.52A1.42,1.42,0,0,1,15.68,22.369Z" transform="translate(-1.48 1.253)" fill="#fff"/>
</svg>