<svg xmlns="http://www.w3.org/2000/svg" width="38.622" height="44.47" viewBox="0 0 38.622 44.47">
  <g id="Layer_2" data-name="Layer 2" transform="translate(-4 -2.366)">
    <path id="Path_70" data-name="Path 70" d="M23.311,46.836A19.332,19.332,0,0,1,4,27.525V10.671A4.837,4.837,0,0,1,7.558,6.014l11.1-3.025a17.724,17.724,0,0,1,9.314,0l11.1,3.025a4.837,4.837,0,0,1,3.542,4.657V27.525A19.332,19.332,0,0,1,23.311,46.836Zm0-41.252a14.493,14.493,0,0,0-3.81.51L8.4,9.12a1.609,1.609,0,0,0-1.178,1.551V27.525a16.093,16.093,0,1,0,32.185,0V10.671A1.609,1.609,0,0,0,38.219,9.12l-11.1-3.025a14.5,14.5,0,0,0-3.8-.51Z" transform="translate(0 0)" fill="#625ba2"/>
    <path id="Path_71" data-name="Path 71" d="M16.437,23.886a1.609,1.609,0,0,1-1.287-.644l-4.828-6.437A1.609,1.609,0,1,1,12.9,14.874l3.8,5.063,9.963-8.529a1.609,1.609,0,1,1,2.092,2.443L17.483,23.506A1.609,1.609,0,0,1,16.437,23.886Z" transform="translate(3.655 5.248)" fill="#ff923e"/>
  </g>
</svg>