<svg xmlns="http://www.w3.org/2000/svg" width="66.966" height="55.805" viewBox="0 0 66.966 55.805">
  <g id="briefcase" transform="translate(0 -42.666)">
    <g id="Group_40" data-name="Group 40" transform="translate(0 42.666)">
      <g id="Group_39" data-name="Group 39" transform="translate(0 0)">
        <path id="Path_85" data-name="Path 85" d="M61.385,51.037H47.434v-2.79a5.586,5.586,0,0,0-5.581-5.581H25.112a5.586,5.586,0,0,0-5.581,5.581v2.79H5.581A5.586,5.586,0,0,0,0,56.617v8.371a5.586,5.586,0,0,0,5.581,5.581H27.9v-1.4a1.394,1.394,0,0,1,1.4-1.4h8.371a1.394,1.394,0,0,1,1.4,1.4v1.4H61.386a5.586,5.586,0,0,0,5.58-5.581V56.617A5.586,5.586,0,0,0,61.385,51.037Zm-19.532,0H25.112v-2.79H41.854Z" transform="translate(0 -42.666)" fill="#fff"/>
        <path id="Path_86" data-name="Path 86" d="M66.192,266.531a1.4,1.4,0,0,0-1.463.138,5.509,5.509,0,0,1-3.343,1.147H39.064V272a1.394,1.394,0,0,1-1.4,1.4H29.3a1.394,1.394,0,0,1-1.4-1.4v-4.185H5.581a5.509,5.509,0,0,1-3.343-1.147A1.394,1.394,0,0,0,0,267.78v19.567a5.586,5.586,0,0,0,5.581,5.581H61.386a5.586,5.586,0,0,0,5.581-5.581V267.78A1.4,1.4,0,0,0,66.192,266.531Z" transform="translate(0 -237.123)" fill="#fff"/>
      </g>
    </g>
  </g>
</svg>