<svg xmlns="http://www.w3.org/2000/svg" width="64.098" height="64.151" viewBox="0 0 64.098 64.151">
  <g id="investment" transform="translate(-0.209)">
    <path id="Path_76" data-name="Path 76" d="M31.981,318.721H17.6l-.669,9.369H34.69l-.669-9.369Z" transform="translate(-14.626 -278.807)" fill="#fff"/>
    <path id="Path_77" data-name="Path 77" d="M2.034,423.553a1.877,1.877,0,0,0-1.825,1.876v7.355a1.879,1.879,0,0,0,1.878,1.878H20.279a1.879,1.879,0,0,0,1.878-1.878v-7.355a1.877,1.877,0,0,0-1.825-1.876H2.034Z" transform="translate(0 -370.511)" fill="#fff"/>
    <path id="Path_78" data-name="Path 78" d="M22.158,142.025V131.453a1.878,1.878,0,0,0-3.757,0v2.982H13.062v-2.982a1.878,1.878,0,0,0-3.757,0v2.982H3.966v-2.982a1.878,1.878,0,0,0-3.757,0v10.572Z" transform="translate(0 -113.348)" fill="#fff"/>
    <path id="Path_79" data-name="Path 79" d="M4.968,258.991l1.462,3.74c.079-.01,17.839-.017,17.839-.017l1.455-3.723H4.968Z" transform="translate(-4.163 -226.557)" fill="#fff"/>
    <path id="Path_80" data-name="Path 80" d="M235.269,0a18.463,18.463,0,1,0,18.489,18.463A18.5,18.5,0,0,0,235.269,0ZM233.56,28.077v-.406a7.268,7.268,0,0,1-3.1-1.271,1.878,1.878,0,0,1,2.057-3.144,3.975,3.975,0,0,0,2.912.758,2.264,2.264,0,0,0,2.247-1.91,1.651,1.651,0,0,0-1.218-1.956,17.329,17.329,0,0,1-4.772-2.3,4.611,4.611,0,0,1-1.543-4.539,5.133,5.133,0,0,1,3.42-3.982V8.849a1.878,1.878,0,0,1,3.757,0v.363a6.469,6.469,0,0,1,2.16,1.024,1.878,1.878,0,1,1-2.25,3.009,2.739,2.739,0,0,0-2.481-.355A1.412,1.412,0,0,0,233.832,14a.972.972,0,0,0,.169.887,14.727,14.727,0,0,0,3.706,1.714,5.407,5.407,0,0,1,3.671,6.121,6.114,6.114,0,0,1-4.061,4.745v.6a1.878,1.878,0,1,1-3.757,0Z" transform="translate(-189.45)" fill="#fff"/>
    <path id="Path_81" data-name="Path 81" d="M235.865,335l-4.713-4.713a1.879,1.879,0,0,0-2.657,0L223.783,335a1.878,1.878,0,0,0,2.657,2.656l1.506-1.506v9.009H212.434a1.878,1.878,0,0,0,0,3.757h17.389a1.879,1.879,0,0,0,1.878-1.878V336.155l1.506,1.506A1.878,1.878,0,0,0,235.865,335Z" transform="translate(-184.005 -288.448)" fill="#fff"/>
  </g>
</svg>