<svg xmlns="http://www.w3.org/2000/svg" width="34.868" height="43.5" viewBox="0 0 34.868 43.5">
	<g id="download-arrow" transform="translate(-53.357)">
		<g id="Group_49" data-name="Group 49" transform="translate(53.357)">
			<path id="Path_94" data-name="Path 94" d="M86.5,466.114H55.1a1.744,1.744,0,0,0-1.739,1.739v2.32a1.744,1.744,0,0,0,1.739,1.739H86.486a1.744,1.744,0,0,0,1.739-1.739v-2.32A1.714,1.714,0,0,0,86.5,466.114Z" transform="translate(-53.357 -428.412)" fill="#fff"/>
			<path id="Path_95" data-name="Path 95" d="M112.912,34.59a1.736,1.736,0,0,0,1.225.514,1.715,1.715,0,0,0,1.225-.514L127.255,22.7a1.752,1.752,0,0,0,0-2.463l-1.646-1.646a1.752,1.752,0,0,0-2.463,0l-6.114,6.12V1.739A1.744,1.744,0,0,0,115.294,0h-2.32a1.736,1.736,0,0,0-1.739,1.739V24.714l-6.12-6.12a1.752,1.752,0,0,0-2.463,0l-1.646,1.646a1.752,1.752,0,0,0,0,2.463Z" transform="translate(-96.687)" fill="#fff"/>
		</g>
	</g>
</svg>