<svg xmlns="http://www.w3.org/2000/svg" width="47.901" height="51.597" viewBox="0 0 47.901 51.597">
  <path id="earn-money" d="M49.64,33.419h0a19.969,19.969,0,0,0-16.524,1.127h0a16.409,16.409,0,0,0-4.324,3.644V31.356h0a14.738,14.738,0,1,0-3.685,0V38.19h0a16.409,16.409,0,0,0-4.324-3.644h0A19.991,19.991,0,0,0,4.26,33.419h0a1.842,1.842,0,0,0-1.242,2.01h0a16.015,16.015,0,0,0,7.456,12.248h0a16.4,16.4,0,0,0,8.257,2.074h0a22.966,22.966,0,0,0,6.376-.951v2.948h0a1.842,1.842,0,1,0,3.685,0V48.8h0a22.966,22.966,0,0,0,6.376.958h0a16.4,16.4,0,0,0,8.257-2.074h0a16.015,16.015,0,0,0,7.456-12.248h0a1.842,1.842,0,0,0-1.242-2.017ZM22.359,21.359h0a1.842,1.842,0,0,1,2.054-1.6l2.638.326a.737.737,0,0,0,.573-.184.724.724,0,0,0,.247-.553h0a.737.737,0,0,0-.7-.773h-.406a4.421,4.421,0,0,1-2.9-7.738h0a4.361,4.361,0,0,1,1.242-.724V9.375h0a1.842,1.842,0,1,1,3.685,0v.619l1.174.164h0a1.842,1.842,0,0,1-.461,3.656l-.043-.006-2.6-.368h0a.717.717,0,0,0-.58.173.737.737,0,0,0,.479,1.29h.376a4.421,4.421,0,0,1,1.658,8.545v.667a1.842,1.842,0,0,1-3.685,0v-.553l-1.148-.142h0a1.842,1.842,0,0,1-1.6-2.055v0Z" transform="translate(-3 -1.993)" fill="#ff923e"/>
</svg>