<svg xmlns="http://www.w3.org/2000/svg" width="55.998" height="56" viewBox="0 0 55.998 56">
  <g id="Page-1" transform="translate(0 0)">
    <g id="_059---Money-Bag" data-name="059---Money-Bag" transform="translate(0 0)">
      <path id="Shape" d="M15,22.769A11.388,11.388,0,0,1,9.5,24,11.388,11.388,0,0,1,4,22.769V45.075A14.838,14.838,0,0,1,5.5,45,11.388,11.388,0,0,1,11,46.231V39c0-1.6,1.584-2.916,4-3.565Z" transform="translate(0 0)" fill="#ff923e"/>
      <ellipse id="Oval" cx="5.5" cy="2" rx="5.5" ry="2" transform="translate(0 47)" fill="#ff923e"/>
      <path id="Shape-2" data-name="Shape" d="M0,51.769V54c0,.8,2.193,2,5.5,2S11,54.8,11,54V51.769A11.388,11.388,0,0,1,5.5,53,11.388,11.388,0,0,1,0,51.769Z" transform="translate(0 0)" fill="#ff923e"/>
      <path id="Shape-3" data-name="Shape" d="M29.521,9.13a4.308,4.308,0,0,0,2.563.863,21.644,21.644,0,0,1-2.043-4.725,1,1,0,0,1,1.927-.537A18.518,18.518,0,0,0,34.491,10h1.028a18.345,18.345,0,0,0,2.522-5.268,1,1,0,1,1,1.928.536,21.629,21.629,0,0,1-2.041,4.721,4.289,4.289,0,0,0,2.51-.859A10.228,10.228,0,0,0,43.87,2.27a.917.917,0,0,0-.427-.916,1.039,1.039,0,0,0-1.135,0A4.234,4.234,0,0,1,39.967,2,4.509,4.509,0,0,1,36.846.78a2.632,2.632,0,0,0-3.74,0A4.513,4.513,0,0,1,29.986,2a4.213,4.213,0,0,1-2.33-.642,1.061,1.061,0,0,0-.566-.167,1.077,1.077,0,0,0-.574.168.914.914,0,0,0-.425.913,10.243,10.243,0,0,0,3.43,6.858Z" transform="translate(0 0)" fill="#ff923e"/>
      <ellipse id="Oval-2" data-name="Oval" cx="5.5" cy="2" rx="5.5" ry="2" transform="translate(10 4)" fill="#ff923e"/>
      <ellipse id="Oval-3" data-name="Oval" cx="5.5" cy="2" rx="5.5" ry="2" transform="translate(4 18)" fill="#ff923e"/>
      <path id="Shape-4" data-name="Shape" d="M55.217,32.229C51.963,18.418,43.275,12.768,40.632,11.338a6.318,6.318,0,0,1-1.533.515l1.857,1.733a1,1,0,1,1-1.365,1.463L36.325,12H36v3a1,1,0,0,1-2,0V12h-.32l-3.266,3.049a1,1,0,0,1-1.366-1.463L30.9,11.863a6.339,6.339,0,0,1-1.544-.513,26.288,26.288,0,0,0-6.637,5.319c-.008.008-.015.017-.023.026a30.316,30.316,0,0,0-2.058,2.5,1,1,0,0,1-1.612-1.183c.653-.89,1.316-1.693,1.974-2.43V8.767A11.388,11.388,0,0,1,15.5,10,11.388,11.388,0,0,1,10,8.769v7.244c4.023.129,7,1.8,7,3.987V35.075A14.838,14.838,0,0,1,18.5,35c4.275,0,7.5,1.72,7.5,4V50H44.19c1.045,0,6.417-.2,9.512-4.1,2.42-3.06,2.93-7.659,1.515-13.671ZM40,32a4,4,0,0,1-4,4v1a1,1,0,0,1-2,0V36a4,4,0,0,1-4-4,1,1,0,0,1,2,0,2,2,0,0,0,2,2V30a4,4,0,1,1,0-8V21a1,1,0,0,1,2,0v1a4,4,0,0,1,4,4,1,1,0,0,1-2,0,2,2,0,0,0-2-2v4A4,4,0,0,1,40,32ZM52.135,44.653C49.611,47.839,45.074,48,44.19,48a1,1,0,0,1,0-2c.723,0,4.425-.125,6.376-2.589a7.658,7.658,0,0,0,1.407-4.46A1.013,1.013,0,0,1,53.02,38a1,1,0,0,1,.951,1.047,9.6,9.6,0,0,1-1.836,5.606Z" transform="translate(0 0)" fill="#ff923e"/>
      <path id="Shape-5" data-name="Shape" d="M32,26a2,2,0,0,0,2,2V24A2,2,0,0,0,32,26Z" transform="translate(0 0)" fill="#ff923e"/>
      <path id="Shape-6" data-name="Shape" d="M36,34a2,2,0,0,0,0-4Z" transform="translate(0 0)" fill="#ff923e"/>
      <path id="Shape-7" data-name="Shape" d="M13,41.769V52c0,.8,2.193,2,5.5,2S24,52.8,24,52V41.769A11.388,11.388,0,0,1,18.5,43,11.388,11.388,0,0,1,13,41.769Z" transform="translate(0 0)" fill="#ff923e"/>
      <ellipse id="Oval-4" data-name="Oval" cx="5.5" cy="2" rx="5.5" ry="2" transform="translate(13 37)" fill="#ff923e"/>
      <path id="Shape-8" data-name="Shape" d="M47.7,7c0,1.64-1.78,2.98-4,3a5.1,5.1,0,0,1-1.11-.12.751.751,0,0,1-.19.17c.16.1.34.21.53.32.61.4,1.32.89,2.1,1.5.08.06.15.12.23.19,4.98.37,6.56,2.45,6.61,2.51a1,1,0,0,0,.83.43.939.939,0,0,0,.55-.17,1,1,0,0,0,.28-1.38c-.08-.12-1.46-2.1-5.49-3.01A4.572,4.572,0,0,0,49.7,7a5.159,5.159,0,0,0-3.83-4.67,1.355,1.355,0,0,1-.02.2,15.334,15.334,0,0,1-.34,1.81A3.055,3.055,0,0,1,47.7,7Z" transform="translate(0 0)" fill="#ff923e"/>
    </g>
  </g>
</svg>