<svg id="invest" xmlns="http://www.w3.org/2000/svg" width="51.597" height="51.597" viewBox="0 0 51.597 51.597">
  <path id="Path_17" data-name="Path 17" d="M0,401.682a1.511,1.511,0,0,0,1.512,1.512H50.086a1.511,1.511,0,0,0,1.512-1.512V391H0Zm0,0" transform="translate(0 -351.597)" fill="#ff923e"/>
  <path id="Path_18" data-name="Path 18" d="M148.093,24.287A12.144,12.144,0,1,0,136,12.194,12.093,12.093,0,0,0,148.093,24.287Zm0-10.581a4.524,4.524,0,0,1-1.512-8.792V3.023a1.512,1.512,0,1,1,3.023,0V4.914a4.528,4.528,0,0,1,3.023,4.257,1.512,1.512,0,1,1-3.023,0,1.512,1.512,0,1,0-1.512,1.512,4.524,4.524,0,0,1,1.512,8.792v1.79a1.512,1.512,0,1,1-3.023,0v-1.79a4.528,4.528,0,0,1-3.023-4.257,1.512,1.512,0,0,1,3.023,0,1.512,1.512,0,1,0,1.512-1.512Zm0,0" transform="translate(-122.294)" fill="#ff923e"/>
  <path id="Path_19" data-name="Path 19" d="M10.506,211.951,4.84,226.117H55.461l-5.666-14.166a1.512,1.512,0,0,0-1.4-.951H42.167a14.962,14.962,0,0,1-24.032,0H11.91a1.512,1.512,0,0,0-1.4.951Zm7.551,8.119H42.244a1.512,1.512,0,1,1,0,3.023H18.058a1.512,1.512,0,1,1,0-3.023Zm0,0" transform="translate(-4.352 -189.737)" fill="#ff923e"/>
</svg>